<svg xmlns="http://www.w3.org/2000/svg" width="1024" height="500" viewBox="0 0 1024 500">
  <defs>
    <linearGradient id="bg" x1="0" y1="0" x2="1" y2="1">
      <stop stop-color="#081416"/>
      <stop offset="1" stop-color="#16362c"/>
    </linearGradient>
    <linearGradient id="card" x1="0" y1="0" x2="0" y2="1">
      <stop stop-color="#f4ead8"/>
      <stop offset="1" stop-color="#d8c8aa"/>
    </linearGradient>
    <filter id="shadow" x="-50%" y="-50%" width="200%" height="200%">
      <feDropShadow dx="0" dy="14" stdDeviation="12" flood-color="#000" flood-opacity=".35"/>
    </filter>
  </defs>
  <rect width="1024" height="500" fill="url(#bg)"/>
  <circle cx="924" cy="-26" r="230" fill="#36b36a" opacity=".13"/>
  <circle cx="113" cy="514" r="220" fill="#f3c969" opacity=".08"/>
  <g opacity=".15" fill="none" stroke="#d8f2df" stroke-width="2">
    <rect x="686" y="54" width="280" height="392" rx="9"/>
    <line x1="686" y1="250" x2="966" y2="250"/>
    <circle cx="826" cy="250" r="48"/>
    <rect x="746" y="54" width="160" height="64"/>
    <rect x="746" y="382" width="160" height="64"/>
  </g>
  <g font-family="Inter,Segoe UI,Arial,sans-serif">
    <text x="76" y="130" font-size="78" font-weight="800" letter-spacing="-4" fill="#f4ead8">copa<tspan fill="#50c878">.</tspan><tspan fill="#f4ead8">life</tspan></text>
    <text x="80" y="198" font-size="26" font-weight="750" letter-spacing="2" fill="#50c878">KADRONU KUR. KUPAYA YÜRÜ.</text>
    <text x="80" y="244" font-size="20" fill="#d8e5df">Her koşuda yeni futbolcular, yeni kararlar, yeni bir hikâye.</text>
    <g transform="translate(80 306)">
      <rect width="178" height="54" rx="27" fill="#50c878"/>
      <text x="89" y="35" text-anchor="middle" font-size="18" font-weight="800" fill="#071311">ZAR AT</text>
      <rect x="194" width="178" height="54" rx="27" fill="#f4ead8"/>
      <text x="283" y="35" text-anchor="middle" font-size="18" font-weight="800" fill="#071311">TAKTİK YAP</text>
    </g>
    <text x="80" y="413" font-size="15" font-weight="700" letter-spacing="1.2" fill="#a9bbb3">ROGUELITE FUTBOL KADRO YÖNETİM OYUNU</text>
  </g>
  <g filter="url(#shadow)" transform="translate(723 127) rotate(-8)">
    <rect width="126" height="178" rx="14" fill="url(#card)"/>
    <rect x="9" y="9" width="108" height="160" rx="9" fill="none" stroke="#18392e" stroke-width="2"/>
    <circle cx="63" cy="66" r="28" fill="#18392e"/>
    <path d="M46 105h34l15 38H31z" fill="#18392e"/>
    <text x="63" y="156" text-anchor="middle" font-family="Segoe UI,Arial,sans-serif" font-size="19" font-weight="800" fill="#18392e">XI</text>
  </g>
  <g filter="url(#shadow)" transform="translate(846 205) rotate(9)">
    <rect width="100" height="100" rx="20" fill="#50c878"/>
    <circle cx="29" cy="29" r="7" fill="#071311"/>
    <circle cx="71" cy="29" r="7" fill="#071311"/>
    <circle cx="50" cy="50" r="7" fill="#071311"/>
    <circle cx="29" cy="71" r="7" fill="#071311"/>
    <circle cx="71" cy="71" r="7" fill="#071311"/>
  </g>
</svg>
