<svg xmlns="http://www.w3.org/2000/svg" fill="none" stroke="currentColor" stroke-linecap="round" stroke-linejoin="round" stroke-width="1.6" viewBox="0 0 20 20"><path fill="currentColor" d="M10 2.7c.9 2.5-1.4 4 .6 6.2 1.3 1.5 3.2 2.4 3.2 5a3.8 3.8 0 1 1-7.6 0c0-2.3 1.3-3.6 2.7-4.9 1.4-1.3 1.8-2.4 1.1-6.3z" opacity=".12"/><path d="M10 2.7c.9 2.5-1.4 4 .6 6.2 1.3 1.5 3.2 2.4 3.2 5a3.8 3.8 0 1 1-7.6 0c0-2.3 1.3-3.6 2.7-4.9 1.4-1.3 1.8-2.4 1.1-6.3z"/><path d="M10.3 8.8c.5 1.1-.5 1.9.4 3 .6.7 1.4 1.1 1.4 2.2a2.1 2.1 0 1 1-4.2 0c0-1 .6-1.6 1.3-2.3.7-.6 1-1.4 1.1-2.9z" opacity=".7"/></svg>