<svg xmlns="http://www.w3.org/2000/svg" xmlns:xlink="http://www.w3.org/1999/xlink" width="1675" height="1675" viewBox="0 0 1675 1675"><path fill="#101D28" d="M1091.45 1675L1074.37 1675C1011.61 1674.96 948.461 1674.54 885.701 1674.12L884.613 1674.12C816.784 1673.66 749.4 1673.22 683.494 1673.27L492.777 1674.06C485.25 1674.09 477.65 1674.17 470.004 1674.25L469.948 1674.25C424.17 1674.72 376.854 1675.2 332.756 1667.21C156.124 1635.24 15.707 1480.88 3.65234 1301.29C1.01367 1262 1.3916 1220.39 1.76318 1179.58C1.89307 1165.2 2.02295 1150.91 2.02295 1136.86L1.86475 838.665L1.75781 550.23C1.75781 538.852 1.64502 526.758 1.52686 514.229L1.52686 514.077L1.521 513.97L1.521 513.846L1.52077 513.82C1.00763 455.655 0.411596 388.093 10.0576 338.235C23.4541 265.382 56.0098 197.412 104.364 141.305C176.135 57.26 280.867 10.0164 390.154 1.82397C424.857 -0.593293 473.726 -0.0656753 516.533 0.396499L516.622 0.397461L517.05 0.397461C532.482 0.572266 547.108 0.730225 559.986 0.741211L876.708 0.837158L1137.67 0.577881C1147.4 0.561035 1157.66 0.487793 1168.23 0.408691L1168.35 0.408691C1226.1 -0.0253906 1293.88 -0.527344 1344.4 8.83228C1404.67 20.5769 1461.5 45.8594 1510.61 82.7734C1598.23 149.999 1655.29 249.459 1669.22 359.018C1673.73 394.387 1673.73 443.057 1673.67 484.014L1673.67 484.364C1673.67 492.68 1673.67 500.681 1673.73 508.18L1673.17 781.56L1673.34 1131.87C1673.28 1141.73 1673.28 1152.54 1673.34 1163.97L1673.34 1165.84C1673.39 1223.13 1673.45 1295.32 1664.88 1341.78C1652.25 1408.14 1624.06 1470.56 1582.67 1523.95C1511.63 1614.69 1412.85 1658.62 1300.14 1672.74C1231.91 1674.39 1161.98 1674.96 1091.45 1675Z"/><path fill="#F24A28" d="M558.464 250.559C548.58 250.621 534.76 250.852 525.39 252.448C441.723 262.715 380.856 290.439 326.994 356.779C262.683 435.975 262.412 508.704 262.062 602.391C262.04 608.706 262.018 615.111 261.973 621.629L261.42 811.201C261.403 835.992 261.144 861.387 260.884 887.104L260.884 887.385L260.884 887.454C260.066 969.663 259.217 1055.09 266.066 1134.07C279.316 1286.73 439.157 1414.05 592.413 1391.66C695.205 1376.64 733.935 1310.88 803.258 1242.57C835.796 1210.51 868.708 1178.01 900.874 1145.41C1003.67 1040.39 1107.86 939.438 1212.5 835.97C1264.45 784.621 1339.55 715.016 1380.65 655.492C1399.88 627.673 1408.79 569.525 1408.34 535.25C1407.77 458.664 1376.14 385.591 1320.77 332.709C1284.29 297.791 1239.35 272.904 1190.42 260.448C1144 249.11 1088.46 249.533 1038.76 249.916C1032.92 249.961 1027.18 250.001 1021.53 250.029C954.75 250.316 887.972 250.254 821.182 250.192L817.269 250.192L813.83 250.187L810.452 250.181C726.447 250.085 642.453 249.995 558.464 250.559Z"/><path fill="#101D28" d="M1004.36 852.721C1000.24 764.521 926.004 695.998 837.753 698.958C779.633 700.909 727.056 733.984 700.127 785.529C673.204 837.075 676.097 899.125 707.705 947.941C739.308 996.758 794.738 1024.79 852.796 1021.32C940.929 1016.06 1008.48 940.921 1004.36 852.721Z"/><path fill="#F3F5F4" d="M894.492 789.281C874.611 770.522 846.154 763.959 820.065 772.112C780.744 784.409 758.506 825.93 770.076 865.471C781.652 905.019 822.761 928.012 862.505 917.169C888.875 909.98 909.314 889.107 915.939 862.596C922.57 836.073 914.373 808.045 894.492 789.281Z"/><path fill="#101D28" d="M705.083 530.408C691.607 443.284 610.173 383.484 523.01 396.7C435.47 409.973 375.359 491.825 388.897 579.315C402.429 666.81 484.455 726.678 571.911 712.881C659.001 699.152 718.559 617.542 705.083 530.408Z"/><path fill="#DA3D2E" d="M620.835 532.285C609.231 492.022 567.198 468.792 526.94 480.379C486.66 491.966 463.418 534.028 475.017 574.297C486.626 614.571 528.688 637.812 568.957 626.192C609.209 614.577 632.433 572.537 620.835 532.285Z"/><path fill="#F3F5F4" d="M1403.82 1068.15C1403.04 1033.47 1392.94 1016.66 1357.2 1013.39C1334.36 1025.98 1315.19 1044.4 1297.03 1062.94C1213.85 1147.84 1128.44 1230.62 1045.51 1315.69C1016.63 1345.32 1027.61 1381.34 1069.12 1385.45C1073.14 1385.82 1077.17 1386.05 1081.21 1386.17C1093.76 1385.92 1116.19 1385.97 1143.53 1386.02L1146.76 1386.02C1234.62 1386.2 1369.54 1386.46 1391.87 1378.59C1399.93 1369.79 1404.73 1351.53 1405.23 1339.6C1408.39 1260.11 1406.47 1179.53 1404.56 1099.76L1404.56 1098.04C1404.28 1088.07 1404.05 1078.1 1403.82 1068.15Z"/></svg>